<?xml version="1.0" standalone="no"?>
<!DOCTYPE svg PUBLIC "-//W3C//DTD SVG 20010904//EN"
 "http://www.w3.org/TR/2001/REC-SVG-20010904/DTD/svg10.dtd">
<svg version="1.0" xmlns="http://www.w3.org/2000/svg"
 width="500.000000pt" height="500.000000pt" viewBox="0 0 500.000000 500.000000"
 preserveAspectRatio="xMidYMid meet">

<g transform="translate(0.000000,500.000000) scale(0.100000,-0.100000)"
fill="#000000" stroke="none">
<path d="M0 2500 l0 -2500 2500 0 2500 0 0 2500 0 2500 -2500 0 -2500 0 0
-2500z m2136 1042 c49 -25 67 -45 93 -102 48 -106 11 -236 -83 -294 -42 -26
-58 -30 -120 -30 -74 -1 -117 14 -164 58 -70 62 -89 191 -42 275 30 52 85 100
132 112 50 13 140 4 184 -19z m1064 -1041 c0 -621 -4 -672 -57 -781 -37 -76
-141 -177 -228 -222 -231 -119 -564 -127 -799 -19 -151 70 -253 186 -297 342
-24 83 -24 88 -24 564 l0 480 220 0 220 0 5 -450 5 -450 30 -54 c53 -96 130
-135 249 -129 101 5 159 40 201 123 l30 59 3 553 3 553 219 0 220 0 0 -569z"/>
</g>
</svg>
